<svg width="300" height="208" viewBox="0 0 300 208" fill="none" xmlns="http://www.w3.org/2000/svg">
<path fill-rule="evenodd" clip-rule="evenodd" d="M163.616 0.048014C187.118 -0.578328 209.899 4.95901 229.744 14.5662C250.62 24.6726 267.058 38.7061 278.205 55.5223C291.002 74.8257 305.8 96.3237 297.677 117.044C289.512 137.874 258.272 146.281 236.957 160.742C212.447 177.372 196.442 207.741 163.616 207.998C130.832 208.256 116.306 175.913 89.1693 161.902C60.5753 147.137 9.34423 149.632 1.09994 124.084C-7.32825 97.9667 34.794 78.9581 55.3447 57.0853C68.9714 42.5819 81.5092 28.1494 100.769 18.0036C119.631 8.06676 140.694 0.658925 163.616 0.048014Z" fill="#768089" fill-opacity="0.89"/>
</svg>
